<svg xmlns="http://www.w3.org/2000/svg" width="3515" height="1262" viewBox="0 0 3515 1262">
  <defs>
    <style>
      .cls-1 {
        fill: #006185;
      }

      .cls-1, .cls-2, .cls-3 {
        fill-rule: evenodd;
      }

      .cls-2 {
        fill: #b2f3f4;
      }

      .cls-3 {
        fill: #34a6cc;
      }
    </style>
  </defs>
  <path id="Luciano_1" data-name="Luciano 1" class="cls-1" d="M486.693,527.539V507.217c23.817,0.1,55.47-3.72,65.007-17.629,13.015-18.982,8.814-61.759,8.814-93.774V175.824c0-32.026,4.34-79.379-8.447-98.182-8.458-12.437-40.948-15.671-62.191-15.67l-0.122-.122V41.284l0.122-.122,207.262,0.122q-0.06,10.344-.122,20.689c-22.879-.074-52.2,1.9-62.191,14.446-14.014,17.6-9.549,67.687-9.549,100.263V377.94q0.185,33.846.367,67.7v7.1q1.53,9.977,3.061,19.955c2.82,7.807,6.491,15.039,13.589,19.22,18.689,11.008,49.453,10.65,78.718,10.651l21.057-.368,14.2-.367c9.039-2.637,18.79-1.5,27.178-4.162a93.482,93.482,0,0,0,29.259-15.3l6.488-7.59,8.447-10.038c6.868-11.465,15.534-22.919,20.69-36.6l8.2-20.444,22.648,2.693L879.3,410.5c-0.12,10.7-5.421,29-8.447,39.175q-7.039,29.133-14.079,58.272l-5.754,19.465ZM1747.53,50.465c23.23-.187,32.27,9.456,39.54,23.75,1.51,2.97.8,5.663,1.96,9.426,2.23,7.24-1.04,16.721-3.43,20.934-4.54,8-11.29,13.994-21.67,18.241l-9.06,1.836-8.08-.367c-4.04-1.444-7.4-1.021-10.89-2.326-12.15-4.542-29.28-23.311-23.02-41.378,2.98-8.6,8.07-18.509,15.06-22.893q4.23-2.326,8.45-4.652Q1741.955,51.751,1747.53,50.465ZM2623.1,527.416H2456.23q0.06-9.732.13-19.465c18.2,0.133,38.75-3.032,46.88-13.344,9.78-12.393,8.45-39.346,8.45-62.189V354.681c0-31.088.4-61.863-8.69-82.634-8.18-18.69-20.77-26.283-39.54-34.523-6.21-2.723-14.15-.975-21.06-3.428l-12.24.367-11.39,1.1c-9.03,3.188-18.79,4.839-26.56,8.814-8.29,4.241-17.02,7.755-24.49,12.61q-9.6,7.1-19.22,14.2c-1.75,1.305-3.51,2.611-5.26,3.917V396.916c0,26.468-3.63,82.5,6.12,96.957,9.26,13.724,29.73,10.708,48.97,14.2v19.342h-173.6l-0.12-.122,0.12-19.343c17.93,0.116,46.31-3.9,53.13-14.568,8.62-13.483,6.86-38.116,6.86-60.231V325.3c0-25.572,2.87-57.531-6.86-72.718-5.19-8.11-30-14.711-43.21-14.691L2234.77,221l21.18-4.04q24.12-6.3,48.23-12.609,15.5-5.754,30.98-11.508,4.035-1.9,8.08-3.8v60.6l0.24,0.122c13.14-9.073,24.69-16.328,38.44-24.851q6.375-3.98,12.73-7.958l15.06-8.814c3.64-2.26,23.27-12.6,27.3-11.875q4.29-1.162,8.57-2.326c6.51-2.522,28.85-3.8,36.12-1.1l7.71,0.735,16.41,4.162a207.978,207.978,0,0,1,27.66,14.936c16.65,10.424,24.64,30.852,32.2,49.825q2.085,10.283,4.16,20.566c0.12,2.367.25,4.734,0.37,7.1,3.18,9.945.86,32.364,0.86,45.173v92.3c0,23.808-2.39,53.89,6.48,67.7,7.18,11.162,28.19,11.1,45.55,12.732v19.342Zm-779.35,0H1667.71l0.36-18.975,20.57-1.959c13.79-4.286,24.06-3.362,31.1-13.833,8.19-12.185,6.12-36.242,6.12-56.559V311.711c0-18.918,3.06-45.973-4.53-57.783-6.73-10.463-30.58-16.042-47.38-16.037l-0.12-.122V220.018l30.6-5.754,22.65-5.754q8.88-2.265,17.75-4.529l39.55-13.834V404.261c0,27.979-3.8,72.951,6.85,89.122,7.93,12.032,32.37,14.622,52.4,14.568Zm-314.14-335.8c30.74-.1,99.6,14.546,87.54,47.5-4.2,11.46-7.85,17.453-17.26,23.628-2.89,1.893-8.48,3.131-12.49,1.591-7.53-2.891-12.33-10.2-18.61-14.2-10.93-6.96-21.34-11.369-33.67-16.894-4.82-2.162-35.15-7.974-43.33-5.264l-9.31.367-19.83,4.53c-27.72,10.7-45.56,28.112-58.27,53.987q-3.315,9.059-6.62,18.119c-9.08,21.464-6.56,71.356,1.23,92.55,5.57,15.159,10.42,31.1,20.81,42.357,1.18,1.632,2.37,3.265,3.55,4.9,27.92,32.756,84.13,57.3,141.64,34.156,18.88-7.6,36.25-20.332,50.69-33.176,2.36,1.188,13.1,14.366,12.97,14.69q-4.83,5.447-9.67,10.895c-3.62,5.184-10.26,12.053-15.54,15.548q-5.025,4.59-10.04,9.181c-13.07,9.466-25.51,18.135-41.38,26.076-45.48,22.763-107.24,16.417-146.54-7.712-9.75-5.984-18.42-14.093-26.94-20.445-7.88-5.883-14.05-15.716-19.71-23.872-24.37-35.132-38.72-95.281-18.48-147.149,18.17-46.569,54.5-79.627,94.26-103.446,12.89-7.717,26.91-12.221,41.38-18l19.59-5.386,26.32-4.163Zm506.84,0c49.05-.283,77.99,22.637,93.28,57.538,4.35,9.927,3.08,20.726,6.86,31.34q0.18,5.323.36,10.65,0.2,14.26.37,28.524V429.235a258.64,258.64,0,0,0,2.33,34.645l-0.12.367c4.2,7.711,6,15.457,13.58,20.444,8.88,5.838,25.01,2.955,34.53-.734q4.47-1.959,8.93-3.918,3.495,9.671,6.98,19.343-32.31,18.667-64.64,37.338c-6.45,4.259-33.55-11.6-35.87-12.977-6.29-3.74-14.21-16.007-17.38-23.137q-1.965-5.875-3.92-11.752-27.72,17.015-55.46,34.033c-7.56,5.153-17.55,8.007-26.44,11.507q-5.145,1.162-10.28,2.326h-6.12c-15.69,0-29.05-3.379-39.42-8.447-22.65-11.059-38.59-25.5-48.61-48.723-2.77-6.436-2.69-13.9-5.26-20.077-3.64-8.74-1.39-27.287,1.1-35.135,8.21-25.856,30.15-39.675,54.85-51.05q22.155-6.854,44.31-13.711c19.31-7.017,37.71-13.049,56.81-20.689,10.68-4.275,23.95-8.4,32.69-15.792,0.22-46.009-10.41-78.4-39.91-91.816-5.38-2.444-10.48-2.9-16.65-4.9-12.02-3.879-29.69-.586-38.32,3.427-20.49,9.522-26.97,30.409-34.89,52.4-2.45,6.8-3.75,12.076-8.33,16.527-0.41.367-.81,0.735-1.22,1.1-14.47,10.573-36.71-.108-42.85-9.671-13.1-20.412-.98-33.5,14.81-43.092,16.63-10.1,33.37-21.86,51.91-30.238l38.2-16.037,23.01-6.856Q2031.055,192.779,2036.45,191.616Zm806.89,0c47.75-.281,77.99,14.981,106.5,31.707,6.71,3.931,11.34,10.6,17.14,14.323,6.45,4.136,14.59,13.148,18.61,19.465,8.3,13.033,17.38,26.515,24.12,42.48q2.8,9.12,5.63,18.241l1.47,6.488c4.71,12.315,2.57,32.562,2.57,48.6,0,24.192-8.56,56.01-18.12,71.127-18.85,29.8-34.92,50.364-66.35,68.922-9.06,5.347-19.06,8.473-29.14,13.467-9.94,4.927-23.42,4.827-35.13,8.692l-14.82,1.591h-11.87a181.118,181.118,0,0,1-75.54-15.792c-44.63-19.673-75.32-53.291-92.06-103.446q-2.145-7.833-4.28-15.67l-1.23-8.569c-0.2-1.02-.41-2.04-0.61-3.06q-0.435-7.651-.86-15.3v-9.3q0.255-6.793.49-13.589c3.12-10.361,2.04-21.373,5.27-30.972,15.3-45.513,37.96-78.122,74.8-100.752,9.55-5.87,21.89-10.967,32.81-16.4l26.56-8.08q7.41-1.345,14.81-2.693ZM1104.32,208.143c10.62,0.012,25.61,1.108,33.79-1.592l10.28-.734,18.36-1.592,24.24-2.2,36.85-6.488V397.65c0,26.169-3.85,67.838,6.49,83.124,7.75,11.453,37.56,8.156,54.6,11.14v17.629l-22.89,4.162-41.14,8.325-50.92,14.69c-1.55-1.469-3.11-2.938-4.66-4.407q-0.12-27.3-.24-54.6-9.8,6.855-19.59,13.711c-14.05,9.476-28.78,21.877-44.93,27.912-1.88.98-3.75,1.959-5.63,2.938-9.22,5.444-20.66,7.58-31.09,12.12l-14.45,2.326c-2.95,1.632-27.94-1.266-29.87-1.959-5.47-1.957-10.89-2.322-15.55-3.917l-1.84-.245c-18.758-10.241-30.989-15.677-42.967-34.155C939.087,459.3,945.9,383.522,945.9,320.525c0-23.749,3.464-63.418-5.387-78.716-7.487-12.941-29-11.73-45.174-15.915V208.265l0.123-.122c40.126,0.113,75.9-8.531,111.406-12.732l0.24,0.245q-1.155,20.932-2.32,41.868-0.375,64.509-.74,129.031c0,27.741-2.21,61.973,6,79.451a176.092,176.092,0,0,0,10.77,20.322c18.44,28.527,69.6,28.981,103.7,15.3q14.745-7.528,29.5-15.058c1.18-1.469,2.37-2.938,3.55-4.407q5.88-4.651,11.75-9.3V307.181c0-22.83,2.6-51.207-6.48-65.372-7.85-12.233-24.99-8.011-41.26-13.1l-17.14-2.694-0.12-.122V208.143Zm1724.81,8.692-13.46,2.326c-8.69,3.205-17.15,6.245-24.12,10.65-19.46,12.305-30.9,31.321-40.64,53.743-3.64,8.376-3.44,17.4-7.23,26.321-2.33,5.49-5.35,56.62-1.83,62.8,0.24,3.509.49,7.019,0.73,10.529,3.38,11.2,2.64,22.365,6.37,32.563,12.66,34.686,26.14,64.553,55.45,82.267,13.95,8.424,28.24,14.567,51.3,14.568l11.26-.367c8-3.3,16.74-3.484,23.88-6.488,21.57-9.082,36.26-27.226,45.41-48.724q3.255-9.3,6.49-18.608l1.47-7.957c5.9-15.657,5.75-37.73,5.76-58.15q-0.375-7.956-.74-15.915-0.555-6.3-1.1-12.609l-1.59-12.854q-2.88-12.242-5.76-24.484C2924.68,256.362,2896.58,216.855,2829.13,216.835Zm-749.84,131.6q-11.325,4.774-22.64,9.549c-23.55,10.079-48.44,17.945-70.64,30.605-4.77,2.716-25.44,16.107-25.1,20.567,0.02,0.189-6.11,13.574-6.98,16.037-7.2,20.45,10.05,47.977,18.86,54.11,30.8,21.443,62.97,12.971,91.94-4.163,4.66-2.762,12.96-6.847,15.18-11.629V374.758C2079.91,371.22,2080.24,348.9,2079.29,348.437Z"/>
  <path id="Luciano_Background_2" data-name="Luciano Background 2" class="cls-2" d="M2244.64,490.543h-17.83c-4.37-2.5-13.77-19.763-14.68-26.691-16.43,2.24-32.06,6.706-47.68-.121q-2.91-1.455-5.83-2.912-1.08-5.822-2.18-11.646c-2.67-14.645-1.99-30.49-3.76-47.194l-0.12-25.6q0.24-22.564.48-45.131-0.12-16.074-.24-32.15-0.72-13.163-1.45-26.327c-3.92-31.252-10.12-58.95-29.12-74.976-60.48-51-193.77,14.866-233.3,44.282-11.57,8.609-38.75,31.709-38.46,49.863,16.11,13.5,22.97,26.431,49.01,31.179l13.23,1.335q4.545-2.609,9.1-5.217c20.14-13.451,30.08-36.429,44.16-55.929,3.74-5.18,17.17-21.308,26.93-18.926q7.515,3.822,15.04,7.643,10.2,5.1,20.39,10.191c5.29,7.231,15.84,62.258,5.94,71.094q-7.155,1.7-14.32,3.4l-37.36,11.4c-48.31,17.878-113.16,45.853-123.75,99.847-7.23,36.855,21.13,69.879,39.31,85.53l11.52,10.434,29.97,0.242,36.88-1.213c33.54-3.881,55.28-9.609,78.5-22.808,13.38,15.08,38.96,19.1,64.42,22.08l25.35,0.971,23.3,0.121,41.25-.242c16.48,1.769,32.52,1.963,47.19,3.76l2.91,15.044-8.13,10.919c-9.54,14.311-17.44,29.787-28.26,42.705l-4.98,5.459H2152.8q-1.515,37.12-3.03,74.248c-17.04,9.406-44.82,39.987-71.82,34.212l-5.22-1.577-7.77-17.713c-5.97-10.584-13.27-19.287-20.86-28.146-23.01-26.848-59.19-42.794-95.48-56.292-23.92-8.895-50.86-13.5-79.23-17.713-90.06-13.393-189.87,6.737-239.85,45.01-28.3,21.671-47.84,52.258-67.21,82.861q-10.065,15.225-20.14,30.452c-4.82-.034-8.35-17.181-10.07-21.6a198.443,198.443,0,0,0-32.15-54.716c-35.35-42.947-89.94-64.714-156.99-76.189-20.38-3.488-41.61-2.836-64.18-5.338l-27.05-.243-33.37.971-91.47,17.713q-35.19-16.2-70.37-32.393c-18.98-8.129-41.64-11.85-63.086-16.742-45.94-10.479-96.057-16.293-144.13-23.172l-27.176-1.577c-11.467-1.292-24.539.391-34.941,1.7-28.843,3.624-55.091,7.46-82.013,12.132-52.61,9.131-108.691,12.308-159.052,23.779-23.513,5.356-46.172,10.913-66.484,19.411-17.872,7.478-34.1,16.84-50.591,26.084-21.724,12.177-45.522,21.659-69.154,31.543-28.521,11.929-59.107,24.418-92.568,30.452-0.33-15.067,9-26.038,14.68-36.032,12.151-21.392,23.826-42.79,36.4-63.572,30.361-50.194,62.035-98.3,97.058-143.643,13.417-17.371,28.857-32.714,42.947-49.256,18.769-22.035,55.253-52.785,87.594-60.418,0.291,24.771-4.93,41.348-9.463,61.51-4.361,19.4-7.982,38.386-15.286,54.594-13.134,29.142-43.45,46.521-78.98,52.9l-8.857,26.691L750.447,543.8c29.166,0,98.487,12.421,117.075-1.334,4.153-3.073,8.629-31.319,10.434-38.459q13.4-55.68,26.812-111.371H854.3l-9.584,8.856a136.23,136.23,0,0,0-14.2,19.411c-11.78,19.941-20.6,43.619-37.731,58.234l-6.551,5.459-18.926.728c-18.863,1.956-41.677,2.354-60.418.121-14.566-1.734-31.882-3.478-39.43-12.374-20.815-24.534-23.082-116.926-17.227-162.327,1.7-13.218,4.621-41.575,11.282-48.528L742.2,228.491c27.518-11.588,54.219-23.41,84.44-32.513,64-19.279,140.535-25.782,223.473-25.842,46.8-.034,143.55-10.885,162.94,17.834-46.64-.13-101.26-4.122-133.46,11.89q1.515,19.348,3.04,38.7c5.33,15.726,42.64,20.526,59.2,26.448,5.71,19.475,3.75,42.336,6.19,65.391q0.18,16.62.36,33.242-0.24,22.685-.48,45.374-0.06,26.02-.13,52.046c-5.59,11.536-47.44,11.305-62.11,7.158-47.89-13.535-54.85-59.969-60.78-115.739a242.9,242.9,0,0,1-.25-48.165q1.77-31.9,3.52-63.814,2.01-30.692,4.01-61.388c-18.81,5.007-40.034,5.873-62.728,8.25l-38.459,1.577c-16.822,1.766-35.762-.154-49.984,5.095-4.657,16.312-4.68,37.08,0,53.26,14.854,1.519,31.52,4.96,38.459,14.558,9.378,12.975,6.066,42.739,6.066,63.936,0,48.032-8.238,102.589.485,147.04,8.785,44.769,33.916,69.031,77.281,79.1,15.17,3.523,35.93,3.682,50.59-.485,9.94-2.824,18.37-8.606,26.81-13.346q33.555-17.832,67.09-35.668c-0.13,19.762-.31,39.487,5.95,53.26,12.83-2.7,26.11-7.619,40.16-10.434,41.78-8.372,82.39-13.519,116.95-28.025V472.709c-15.97.272-30.52-.644-42.1-4.974l-14.19-6.794q-1.395-136.471-2.79-272.971l145.1,47.437-0.12.485c-2.09,3.966-6.11,5.7-9.35,8.492q-10.425,9.705-20.86,19.412c-10.5,12.288-18.86,24.54-27.79,38.822l-11.16,13.345a132.68,132.68,0,0,0-19.41,39.672c-27.15,89.989,50.07,170.147,108.1,194.476,21.43,8.986,55.05,15.007,82.5,7.279,42.62-12,66.26-36.518,95.36-61.388q9.45-9.341,18.92-18.683c9.61-11.245,23.71-25.686,35.79-34.212q-5.88-7.4-11.77-14.8c-7.36,2.265-29.21,20.645-34.57,15.407q-4.68,3.822-9.34,7.643c-8.63,5.474-21.21,8.333-31.67,11.283-79.75,22.506-130.34-28.551-143.52-90.5-6.99-32.813-7.38-81.278,8.85-103.85,2.25-3.126,12.19-13.164,17.72-12.01q12,6,24.02,12.01c19.95,11.208,40.21,21.5,63.33,29.36l22.2,5.945c5.47-7.653,14.53-13.549,21.96-19.29,16.94-13.085,35.24-26.33,48.29-43.312,7.53-9.81,16.23-24.582,6.06-38.216-8.82-11.827-25.22-15.638-37.85-23.657v-0.121c8.89-7.512,15.79-26.907,23.05-37.246,15.56-22.167,34.24-42.06,56.17-57.869,6.08-4.378,27.58-19.2,36.03-18.8-4.89,4.387-5,10.212-8.61,16.136-3.14,5.156-7.65,9.046-10.07,15.286-8.38,21.644,6.44,39.7,22.08,45.01q7.395,2.487,14.8,4.974,5.82-2.487,11.65-4.974c24-10.837,42.46-28.388,59.93-45.859l8.37-8.492q-1.455-16.255-2.91-32.514C1798.8,42.416,1774,40.9,1764.45,33.651c5.38-3.759,10.07-7.991,16.62-10.8,16.82-7.2,39.93-7.972,59.33-12.5,125.91-29.363,230.65,7.414,304.15,63.693,15.76,12.063,31.8,25.063,44.65,40.035,17.29,20.145,34.75,39.271,49.38,62.359q4.485,7.157,8.97,14.316c1.03,7.072-13.36,9.588-17.95,11.647-13.2,5.918-34.54,18.231-37.98,33.241-5.21,22.781,31.46,24.717,47.08,29.481,5.12,13.013,5.77,29.243,7.76,44.888C2253.88,368.254,2246.01,432.12,2244.64,490.543ZM1802.91,176.081c-5.25-.124-8.71,2.243-12.74,3.64q-11.58,3.577-23.17,7.158c-23.23,6.828-48.05,11.141-72.55,16.742l-39.79,8.128q-2.01,4-4.01,8.007c-5.68,10.1-12.21,21.631-7.76,36.518,19.65,2.358,29.53,27.187,34.57,45.009,12.47,44.023,9.24,100.66,15.78,151.529,1.58,12.3,3.86,23.928,5.94,34.819l-59.2,17.713q1.575,19.409,3.15,38.822c16.33,5.778,46.1,3.154,66.97,3.155l66.85-1.82,39.43-1.7,42.94-2.911q1.335-25.233,2.67-50.469-20.61-2.912-41.25-5.824-7.4-8.855-14.8-17.713Q1804.425,321.5,1802.91,176.081ZM934.856,205.2h0Zm-752.436.485c73.973-.959,124.182,83.9,63.209,130.783-9.629,7.4-20.611,13.54-34.82,16.379-41.257,8.24-70.619-20.412-81.042-47.558-3.434-8.943-4.007-17.868-5.339-29.6-1.01-8.909.51-21.971,3.64-28.51C135.26,232.149,164.828,210.422,182.42,205.683Zm3003.92,65.27c12.51,1.659,23.9.991,34.58,3.4,38.53,8.688,67.78,30.536,82.49,62.966,31.45,69.31.47,142.145-47.55,172.153-16.01,10-34.21,16.446-58,18.8-20.97,2.08-39.28-4.483-53.13-10.676-49.09-21.945-95.5-81.184-72.8-154.319,13.12-42.261,41.65-63.592,80.68-79.95C3163.42,278.8,3174.12,273.79,3186.34,270.953ZM2632.99,448.93l14.92,0.121c7.04,32.784,49.69,62.278,74.74,78.98,8.68,5.79,37.13,22.406,37.85,33.484,0.54,8.215-15.26,36.292-19.41,42.22-15.44,22.039-35.89,39.107-66.36,46.1-69.04,15.844-133.1-37.755-115.87-105.912,19.41,0.236,41.52,2.536,57.75-2.427,7.44-2.272,13.04-6.229,19.29-9.341l-2.91-15.044q-19.29-19.227-38.58-38.458c2.13-7.965,3.42-16.233,8.86-20.746Q2618.12,453.42,2632.99,448.93ZM1260.36,642.678c0.16,0.041.32,0.081,0.49,0.122C1260.68,642.759,1260.52,642.719,1260.36,642.678Zm41.74,0h0Zm494.99,0,0.48,0.122Zm41.73,0h0Zm1044.34,0h0Zm51.19,0h0Zm36.52,3.033h0Zm-2209.5,6.066h0ZM1796.84,724.812c23.56,1.963,55.07,2.429,71.34,12.617,19.28,12.074,31.38,36.765,40.64,58.841,34.1,81.262,47.19,237.57-.97,314.1-5.94,9.45-17.54,14.67-26.93,20.62q-13.83,8.985-27.66,17.96-15.765-7.155-31.54-14.32c-29.88-13.45-58.97-30.37-85.29-47.92-11.36-7.57-25.02-15.7-31.91-27.66-40.27-69.957-6.15-198.907,17.95-260.961,7.11-18.276,14.37-36,23.9-51.8q3.045-4.792,6.07-9.585Zm1354.8,35.668c3.86,1.17,10.17,6.44,8.98,12.011q-8.985,15.952-17.96,31.907-36.93,65.506-73.88,131.026c-71.8-11.892-123.97-44.519-177.86-74.127v-0.121c1.93-1.108,4.09-4.654,7.04-4.246l4.97,1.334,38.22-12.617c56.21-17.268,114.43-32.618,164.87-55.322C3122.54,782.892,3140.66,773.613,3151.64,760.48Zm317.14,14.8c18.51,1.352,43.07,13.343,46.7,29.845v49.863q-2.535,2.79-5.09,5.58c-9.41,9.42-20.3,15.661-37.49,17.47-31.17,3.281-47.55-24.888-50.95-50.711q-0.255-8.188-.49-16.379c2.1-1.819,4.21-3.639,6.31-5.459,7.67-6.415,15.13-13.08,23.41-18.926Q3459.985,780.924,3468.78,775.281ZM71.532,778.193l41.735,20.746q2.547,10.614,5.095,21.231C128.1,865.8,114.752,886.708,85,903.638c-2.93,1.667-13.425,8.286-16.864,8.007-36.155-2.927-59.539-23.777-66-56.9-0.988-5.064-3.148-13.994-1.577-20.26l10.555-20.625c9.921-15.7,25.2-22.367,43.8-29.481ZM715.021,952.53H634.949q1.517-75.331,3.033-150.68l14.559-2.911c8.617-1.307,18.832.723,26.2,1.941,41.825,6.9,70.507,25.5,90.87,53.745,4.079,5.657,19.441,28.824,19.533,36.153L783.2,901.333c-14.844,23.682-36.527,42.083-68.183,48.892v2.3ZM2152.8,825.629V1261.65c-41.75-2.76-79.38-12.63-110.76-26.44-7.66-3.37-16.65-6.83-22.57-12.14l23.78-23.9q10.185-17.34,20.38-34.69,13.59-22.875,27.18-45.74c12.34-28.09,17.67-61.18,22.32-97.06,2.4-18.52.74-37.787,2.91-57.746q-0.06-15.1-.12-30.209-0.8-23.231-1.58-46.465-1.335-24.99-2.67-49.984C2126.04,834.155,2134.85,825.659,2152.8,825.629Zm429.84,311.431H2333.57V846.375c47.88,5.7,87.48,17.922,129.21,29.845,19.17,5.479,39.47,11.723,60.29,14.679l169.25,2.912q9.21,6.793,18.44,13.588c19.48,14.049,37.75,30.614,60.54,40.885,40.08,18.067,83.26,33.979,124.11,51.806,28.85,12.59,58.69,25.95,81.41,45.01q-28.155,29.715-56.3,59.44-20.865,15.165-41.73,30.33-17.6,12.93-35.18,25.85-5.9-1.83-11.77-3.64l-41.25-8.13c-43.35-8.43-88.09-11.84-133.82-17.84,0.03,42.58,9.01,100.76-8.98,130.54-20.42.14-38.9-.44-53.38-5.94Q2588.53,1196.385,2582.64,1137.06Zm-530.54-257.2h0Zm-1014.61,2.184h0Zm535.52,11.04h0Zm86.86,19.533v0Zm-230.63,7.158v0Zm-394.78,5.58v0Zm0,28.875v0Zm394.78,2.547v0Zm230.63,5.7v0Zm-86.86,28.511h0Zm-535.52,11.771h0Zm-307.91,16.37h0Zm-91.6,20.02,118.531-2.91c-9.4,31.75-45.187,39.07-81.649,44.04q-16.983,1.7-33.97,3.4C636.275,1081.93,637.932,1047.61,637.982,1039.15Zm2365.888,46.59h0Zm-225.05,75.95h0Zm-1525.25,3.03h0Zm536.72,0h0Zm1033.66,0,2.31,0.12Zm48.89,0,1.46,0.12Z"/>
  <path id="Pools_1" data-name="Pools 1" class="cls-3" d="M1235.39,631.568c129.51-.6,198.61,53.321,234.6,145.572,5.52,14.14,9.21,29.646,13.33,44.752q2.13,11.815,4.27,23.634c2.02,6.641.97,14.741,3.14,22,1.81,6.03.23,13.394,2.01,20.114l1.14,18.731c2.5,8.869.88,21.732,0.88,31.93,0,10.459,1.06,22.444-1.26,31.679q-1.14,14.958-2.26,29.919-3.15,18.483-6.29,36.962c-5.84,19.79-10.66,38.91-18.1,56.94-26.36,63.91-70.91,111.22-136.92,136.4-15.43,5.88-32.05,8.14-49.53,12.57q-13.515,1.44-27.03,2.89c-3.79,1.45-34.72.02-38.1-.88-9.42-2.51-20.79-.76-30.04-3.14-26.33-6.79-50.02-12.04-70.16-24.39-7.51-4.61-14.81-8.44-21.87-13.33-48.31-33.39-71.24-85.79-88.89-150.22-4.533-16.54-3.79-34.69-8.173-52.17q-0.817-12.693-1.634-25.391-0.378-10.56-.755-21.12V916.552q0.378-7.1.755-14.205,1.76-16.843,3.52-33.69,3.145-16.719,6.287-33.439c6.57-21.441,12.2-41.486,20.49-60.592,25.08-57.814,67.81-101.088,126.61-125.333,13.24-5.463,27.78-8.548,42.49-12.571l16.09-2.766Zm556.2,0c134.15-.547,198.27,54.92,236.23,149.846,6.28,15.682,8.99,33.881,14.08,51.415q1.77,11.5,3.53,23c1.94,6.985.76,15.062,2.76,22.754,3.57,13.729,2.77,36.726,2.77,53.049q-0.2,10.056-.38,20.114c-2.17,7.173.88,17.331-1.26,24.136q-0.945,12-1.88,24.011-2.58,15.768-5.16,31.552c-7.23,22.96-11.41,44.82-20.37,65.12-29.17,66.12-68.47,105.26-135.65,133.63-15.25,6.44-32.39,7.36-49.54,12.57q-13.575,1.44-27.15,2.89c-4.15,1.67-34.19-.09-38.35-0.88-10.48-1.98-20.14-.58-29.79-3.14-27.75-7.37-51.63-13.09-72.92-25.9-30.31-18.23-54.21-40.43-72.67-70.4-12.61-20.47-22.39-44.29-29.92-69.64q-4.725-21.18-9.43-42.36-2.715-22.575-5.41-45.133-0.195-5.971-.38-11.943c-1.9-6.143,1.14-14.56-.88-21.37-1.79-6.054-.8-41.155.88-46.513,0.13-3.729.25-7.459,0.38-11.188q2.7-21.558,5.41-43.119,3.57-15.712,7.16-31.427c5.16-16.764,10.83-32.511,17.23-47.9,24.08-57.929,68.52-101.4,126.73-125.458,13.25-5.478,27.8-8.47,42.49-12.571l16.09-2.766Zm1128.24,0c15.28-.039,35.98-2.051,49.16,1.257,6.62,1.661,13.83-.059,19.74,1.634l17.98,1.886c10.36,2.767,21.33,1.514,31.18,4.4,15.27,4.479,32.88,3.441,47.77,8.674v73.164l-0.12.125q-15.6-3.771-31.18-7.542l-47.4-8.171-34.2-3.52-12.32-.377c-4.17-1.342-34.12-2.009-38.72-.5h-8.8l-28.42,2.765-29.04,6.286c-15.48,4.822-27.04,12.178-38.85,20.113-12.07,8.119-19.97,21.4-25.02,36.582-1.51,4.559-.41,9.295-2.01,14.457-1.5,4.863-.69,14.694.76,19.108,21.38,65.176,103.45,80.222,165.45,105.47,64.89,26.425,132.31,51.152,160.92,113.645,4.64,10.11,5.47,22.1,9.43,33.44q0.075,9.36.13,18.73c0,32.72-4.66,55.47-17.1,75.42-22.21,35.61-51.15,57.9-92.41,74.55-12.4,5-26.03,7.7-39.35,11.82l-43.62,7.41q-7.74.57-15.47,1.13c-4.9,1.74-11.38-.36-16.97,1.26-10.38,3.02-25.84.88-37.72,0.88-4.68,0-12.13,1.03-15.84-.5-3.27-.13-6.54-0.25-9.8-0.38-5.77-1.89-14.32.47-19.87-1.26q-13.77-.93-27.53-1.88l-18.48-2.01c-17.93-4.88-38.18-3.01-54.94-8.68q-14.025-2.88-28.04-5.78v-78.95q10.5,3.15,20.99,6.29c13.34,4.43,28.56,6.58,43.13,10.68q10.185,1.77,20.37,3.52,25.38,2.775,50.79,5.54l14.08,0.75q12.57,0.2,25.14.38c8.25,1.73,43.43,1.05,50.04-1.26,2.93-.13,5.87-0.25,8.8-0.38q14.145-2.13,28.29-4.27c33.76-10.1,62.9-19.4,76.82-49.66,2.9-6.31,3.93-13.44,6.28-20.49,1.78-5.33,2.42-17.54.76-23.5-1.84-6.6-1.28-11.93-3.52-17.48-9.65-23.86-30.66-36.51-51.55-49.28-21.12-12.9-45.73-20.27-70.28-30.167-76.58-30.871-156.47-52.2-197.38-118.67-4.77-7.748-7.31-16.859-10.69-26.022q-1.575-7.857-3.14-15.714-0.39-6.788-.76-13.577v-12.7q0.375-6.348.76-12.7c2.73-8.457,2.86-18.249,6.28-26.274,25.28-59.331,62.25-85.068,124.72-105.847,13.65-4.541,28.23-5.548,42.12-9.428q9.42-1.2,18.86-2.389Zm-2433.125,8.3H675.542l19.236,0.754,15.464,0.754,17.35,2.011,38.094,7.04c57.142,16.577,99.65,41.305,126.226,88.123C918.438,785.276,915.451,861.01,890.781,907c-28.483,53.095-73.969,83.8-134.9,103.712-15.49,5.06-32.637,5.35-49.535,9.8l-28.665,1.89c-9.16,2.36-21.787.88-32.185,0.88H575.34a1.745,1.745,0,0,0-.125.13v213.83l-0.126.12H486.705V639.865ZM2282.92,1167.85h282.12a1.538,1.538,0,0,0,.13.12v69.27H2193.02V639.99a1.745,1.745,0,0,0,.13-0.125h89.64a1.745,1.745,0,0,0,.13.125v527.86ZM1238.15,703.1l-18.1,1.508c-12.67,3.881-24.64,4.945-35.33,10.183-51.85,25.415-72.96,70.038-90.14,130.235q-3.15,18.1-6.29,36.2-0.75,7.227-1.51,14.456-0.63,12.507-1.25,25.016-0.195,8.3-.38,16.594c0,11.545-1.54,25.819,1.26,35.45q0.75,9.616,1.51,19.234,0.375,5.154.75,10.312,3.135,18.465,6.29,36.95,4.14,14.775,8.29,29.55c14.74,35.29,30.09,63.58,60.1,83.34a133.142,133.142,0,0,0,31.56,15.72l20.11,4.77q9.495,0.765,18.99,1.51,9.3,0.195,18.6.38,7.8-.75,15.59-1.51c9.29-2.49,18.97-3.38,27.16-7.04,38.62-17.25,67.54-46.57,83.1-86.24l11.07-31.05,5.4-24.51c1.74-5.06,1.24-11.98,3.14-17.98,1.75-5.48.53-12.469,2.39-18.6,3.5-11.49,2.39-30.126,2.39-44.124q-0.18-12.192-.37-24.388c-2.01-6.908,1.16-15.191-1.26-21.245l-1.89-23.759c-4.66-16.256-4.85-33.9-9.43-49.4C1369.06,754.127,1329.71,703.192,1238.15,703.1Zm556.21,0-18.11,1.508c-12.71,3.748-24.65,4.965-35.33,10.183-36.47,17.823-60.98,48.568-76.81,86.991-4.8,11.629-7.47,24.256-11.82,36.581-4.71,13.321-3.92,28.571-7.8,42.742q-0.81,7.353-1.63,14.708-0.57,12.381-1.13,24.765-0.2,8.862-.38,17.725c0,17.206-1.19,39.2,2.77,53.678q0.555,6.725,1.13,13.452l5.91,33.81c13.55,48.97,31.07,89.13,69.52,113.65,15.78,10.05,29.66,13.93,50.54,19.73q9.495,0.765,18.99,1.51,9.3,0.195,18.6.38,6.285-.57,12.58-1.13c9.33-2.57,18.83-2.83,27.15-6.29,55.41-23.03,81.81-66.68,99.58-127.09,8.35-28.4,10.93-61.338,10.93-96.923q-0.18-12-.37-24.011-0.39-10.558-.76-21.119l-1.26-13.325q-2.88-19.986-5.78-39.976c-4.38-13.806-6.44-28.071-11.44-40.856C1916.25,744.437,1877.12,703.207,1794.36,703.1ZM575.466,707.748q-0.126,122.743-.251,245.511l58.964,0.126c85.47,0,143.644-12.064,172.87-68.009,12.3-23.537,17.6-71.615,5.909-100.819C779.4,700.762,690.376,707.791,575.466,707.748Z"/>
</svg>
